<svg width="104" height="21" viewBox="0 0 104 21" fill="none" xmlns="http://www.w3.org/2000/svg">
<g clip-path="url(#clip0_143_428)">
<path d="M10.9055 6.53188L8.66535 10.728C7.80406 10.8148 6.936 10.8148 6.0747 10.728L3.80954 6.48911V14.648C2.54118 14.7336 1.26836 14.7336 0 14.648L0 0.0646615C1.32636 -0.0222049 2.65712 -0.0222049 3.98348 0.0646615L7.37925 6.53188L10.775 0.0646615C12.0869 -0.022195 13.4032 -0.022195 14.715 0.0646615V14.648C13.4467 14.7336 12.1738 14.7336 10.9055 14.648V6.53188Z" fill="#FCFCFC"/>
<path d="M17.6324 0.0649006C18.9008 -0.0219591 20.1737 -0.0219591 21.442 0.0649006V14.6482C20.1736 14.7338 18.9008 14.7338 17.6324 14.6482V0.0649006Z" fill="#FCFCFC"/>
<path d="M28.1677 6.33899V14.6483C26.9016 14.7766 25.6255 14.7766 24.3594 14.6483V0.0649132C25.7197 -0.0216581 27.0842 -0.0216581 28.4444 0.0649132L32.8851 8.56603V0.0649132C34.1534 -0.0219633 35.4263 -0.0219633 36.6946 0.0649132V14.6483C35.3027 14.7338 33.9067 14.7338 32.5148 14.6483L28.1677 6.33899Z" fill="#FCFCFC"/>
<path d="M39.6187 14.648V0.0646973H45.2348C49.1537 0.0646973 51.5915 1.04859 51.5915 3.9834V10.7073C51.5915 13.6408 49.1537 14.648 45.2137 14.648H39.6187ZM47.7819 4.73266C47.7819 3.40525 46.6276 3.19007 45.2348 3.19007H43.4282V11.4786H45.2348C46.6276 11.4786 47.7819 11.2634 47.7819 10.0008V4.73266Z" fill="#FCFCFC"/>
<path d="M65.7412 6.1884C65.7412 8.99359 63.3245 9.95803 59.4715 9.95803H58.0786V14.648C56.8107 14.744 55.5371 14.744 54.2691 14.648V0.0646973H59.4715C63.3245 0.0646973 65.7412 1.04859 65.7412 3.89785V6.1884ZM61.933 4.71062C61.933 3.40525 60.8011 3.19007 59.4293 3.19007H58.0786V6.91692H59.4293C60.8011 6.91692 61.933 6.70303 61.933 5.4184V4.71062Z" fill="#FCFCFC"/>
<path d="M68.179 14.6482V0.0649132C69.4473 -0.0219632 70.7202 -0.0219632 71.9886 0.0649132V11.6499H77.6917C77.801 12.6465 77.801 13.6517 77.6917 14.6482H68.179Z" fill="#FCFCFC"/>
<path d="M79.6076 14.648V0.0646973H89.227C89.3364 1.06081 89.3364 2.06562 89.227 3.06173H83.4119V5.84618H89.0056C89.115 6.82843 89.115 7.81949 89.0056 8.80173H83.4119V11.6536H89.223C89.3324 12.6501 89.3324 13.6554 89.223 14.6519L79.6076 14.648Z" fill="#FCFCFC"/>
<path d="M97.2836 9.50841L94.5836 14.6482C93.2572 14.7338 91.9265 14.7338 90.6001 14.6482L94.801 7.15304L90.8834 0.0648953C92.2168 -0.021953 93.5546 -0.021953 94.888 0.0648953L97.2836 4.83915L99.7424 0.0648953C101.054 -0.0219573 102.371 -0.0219573 103.682 0.0648953L99.7424 7.11027L103.968 14.6482C102.635 14.7338 101.297 14.7338 99.9638 14.6482L97.2836 9.50841Z" fill="#FCFCFC"/>
<path d="M1.66957 18.8417L1.27425 20.3273C1.09636 20.3402 0.869714 20.3402 0.691821 20.3364L0.032959 18.0341C0.236949 18.0199 0.441711 18.0199 0.645701 18.0341L1.00149 19.4847L1.34409 18.0341C1.56611 18.0199 1.78884 18.0199 2.01086 18.0341L2.34952 19.4847L2.70926 18.0341C2.90885 18.0199 3.10923 18.0199 3.30882 18.0341L2.64996 20.3273C2.45736 20.3402 2.26408 20.3402 2.07148 20.3273L1.66957 18.8417Z" fill="#FCFCFC"/>
<path d="M6.36595 19.4173H5.66624V20.3247C5.46704 20.3377 5.26719 20.3377 5.06799 20.3247V18.0341C5.26715 18.0199 5.46709 18.0199 5.66624 18.0341V18.8988H6.36463V18.0341C6.56422 18.0199 6.7646 18.0199 6.9642 18.0341V20.3273C6.76456 20.3402 6.56427 20.3402 6.36463 20.3273L6.36595 19.4173Z" fill="#FCFCFC"/>
<path d="M8.91968 20.3273V18.0342H10.4324C10.4496 18.1906 10.4496 18.3483 10.4324 18.5047H9.51792V18.9429H10.3982C10.4153 19.0971 10.4153 19.2527 10.3982 19.407H9.51792V19.8555H10.4324C10.4496 20.0123 10.4496 20.1705 10.4324 20.3273H8.91968Z" fill="#FCFCFC"/>
<path d="M14.1458 18.9636C14.1458 19.2423 13.985 19.4005 13.7083 19.4821C13.8917 19.7501 14.0517 20.0328 14.1866 20.3273C13.976 20.3403 13.7647 20.3403 13.5541 20.3273C13.4272 20.0542 13.2782 19.7915 13.1087 19.5418H12.9414V20.3273C12.7417 20.3403 12.5414 20.3403 12.3418 20.3273V18.0342H13.1601C13.7663 18.0342 14.1458 18.1884 14.1458 18.6201V18.9636ZM13.5462 18.7575C13.5462 18.5527 13.3683 18.5255 13.1509 18.5255H12.9414V19.0557H13.1535C13.3683 19.0557 13.5488 19.0284 13.5488 18.8262L13.5462 18.7575Z" fill="#FCFCFC"/>
<path d="M16.063 20.3273V18.0342H17.5758C17.5929 18.1906 17.5929 18.3483 17.5758 18.5047H16.6613V18.9429H17.5415C17.5587 19.0971 17.5587 19.2527 17.5415 19.407H16.6613V19.8555H17.5758C17.593 20.0123 17.593 20.1705 17.5758 20.3273H16.063Z" fill="#FCFCFC"/>
<path d="M22.2405 18.5086H21.6001C21.583 18.3509 21.583 18.1919 21.6001 18.0342H23.4792C23.4963 18.1919 23.4963 18.3509 23.4792 18.5086H22.8388V20.3234C22.6396 20.3364 22.4397 20.3364 22.2405 20.3234V18.5086Z" fill="#FCFCFC"/>
<path d="M26.5627 19.4173H25.8656V20.3247C25.666 20.3376 25.4657 20.3376 25.2661 20.3247V18.0341C25.4656 18.0199 25.666 18.0199 25.8656 18.0341V18.8988H26.5627V18.0341C26.7623 18.0199 26.9627 18.0199 27.1623 18.0341V20.3273C26.9626 20.3402 26.7623 20.3402 26.5627 20.3273V19.4173Z" fill="#FCFCFC"/>
<path d="M29.1217 20.3273V18.0342H30.6344C30.6516 18.1906 30.6516 18.3483 30.6344 18.5047H29.7213V18.9429H30.6002C30.6173 19.0971 30.6173 19.2527 30.6002 19.407H29.7213V19.8555H30.6344C30.6516 20.0123 30.6516 20.1705 30.6344 20.3273H29.1217Z" fill="#FCFCFC"/>
<path d="M35.4204 19.4446V20.3338C35.2212 20.3468 35.0213 20.3468 34.8221 20.3338V18.0342H36.3349C36.352 18.1906 36.352 18.3483 36.3349 18.5047H35.4204V18.9701H36.2624C36.2795 19.1256 36.2795 19.2825 36.2624 19.4381L35.4204 19.4446Z" fill="#FCFCFC"/>
<path d="M39.5317 18.0342C39.7286 18.0199 39.9264 18.0199 40.1234 18.0342V19.744C40.1234 20.2093 39.7399 20.3675 39.1654 20.3675C38.5908 20.3675 38.2034 20.2093 38.2034 19.744V18.0342C38.4026 18.0199 38.6025 18.0199 38.8017 18.0342V19.6338C38.8017 19.8425 38.9703 19.8684 39.1654 19.8684C39.3604 19.8684 39.5317 19.8425 39.5317 19.6338V18.0342Z" fill="#FCFCFC"/>
<path d="M42.5334 18.5086H41.893C41.8759 18.3509 41.8759 18.1919 41.893 18.0342H43.7721C43.7892 18.1919 43.7892 18.3509 43.7721 18.5086H43.1317V20.3234C42.9325 20.3364 42.7326 20.3364 42.5334 20.3234V18.5086Z" fill="#FCFCFC"/>
<path d="M46.8767 18.0342C47.0736 18.0199 47.2714 18.0199 47.4683 18.0342V19.744C47.4683 20.2093 47.0849 20.3675 46.5103 20.3675C45.9358 20.3675 45.5484 20.2093 45.5484 19.744V18.0342C45.748 18.0199 45.9484 18.0199 46.148 18.0342V19.6338C46.148 19.8425 46.3153 19.8684 46.5103 19.8684C46.7054 19.8684 46.8767 19.8425 46.8767 19.6338V18.0342Z" fill="#FCFCFC"/>
<path d="M51.2173 18.9636C51.2173 19.2423 51.0552 19.4005 50.7785 19.4821C50.9628 19.7498 51.1233 20.0325 51.2581 20.3273C51.0471 20.3403 50.8354 20.3403 50.6243 20.3273C50.4979 20.0542 50.3494 19.7915 50.1802 19.5418H50.0116V20.3273C49.8124 20.3403 49.6125 20.3403 49.4133 20.3273V18.0342H50.2316C50.8365 18.0342 51.2173 18.1884 51.2173 18.6201V18.9636ZM50.6177 18.7575C50.6177 18.5527 50.4398 18.5255 50.2224 18.5255H50.0103V19.0557H50.2224C50.4385 19.0557 50.6177 19.0284 50.6177 18.8262V18.7575Z" fill="#FCFCFC"/>
<path d="M53.1332 20.3273V18.0342H54.646C54.6631 18.1906 54.6631 18.3483 54.646 18.5047H53.7328V18.9429H54.6117C54.6288 19.0971 54.6288 19.2527 54.6117 19.407H53.7328V19.8555H54.646C54.6631 20.0123 54.6631 20.1705 54.646 20.3273H53.1332Z" fill="#FCFCFC"/>
<path d="M59.9894 19.495H59.7113C59.6942 19.3473 59.6942 19.1981 59.7113 19.0504H60.5296V20.2689C60.2958 20.3289 60.0557 20.362 59.8141 20.3674C59.2053 20.3674 58.8008 20.2118 58.8008 19.7309V18.6265C58.8008 18.1442 59.2053 17.99 59.8141 17.99C60.0351 17.9908 60.2556 18.0112 60.473 18.0509C60.4901 18.2073 60.4901 18.3651 60.473 18.5215C60.2872 18.4933 60.0996 18.479 59.9116 18.4787C59.6178 18.4787 59.3951 18.4917 59.3951 18.7509V19.5961C59.3951 19.8554 59.6178 19.8761 59.9116 19.8761C59.9357 19.8775 59.9599 19.8775 59.9841 19.8761L59.9894 19.495Z" fill="#FCFCFC"/>
<path d="M62.4495 20.3273V18.0342H63.9623C63.9794 18.1906 63.9794 18.3483 63.9623 18.5047H63.0491V18.9429H63.928C63.9451 19.0971 63.9451 19.2527 63.928 19.407H63.0491V19.8555H63.9623C63.9794 20.0123 63.9794 20.1705 63.9623 20.3273H62.4495Z" fill="#FCFCFC"/>
<path d="M66.3447 18.5086H65.7043C65.6872 18.3509 65.6872 18.1919 65.7043 18.0342H67.5834C67.6005 18.1919 67.6005 18.3509 67.5834 18.5086H66.9403V20.3234C66.7407 20.3364 66.5404 20.3364 66.3408 20.3234L66.3447 18.5086Z" fill="#FCFCFC"/>
<path d="M70.9212 19.8255C70.9212 20.2144 70.5891 20.3673 70.0409 20.3673C69.7914 20.3672 69.5422 20.3503 69.2951 20.3168C69.2753 20.1545 69.2753 19.9904 69.2951 19.8281C69.5395 19.8587 69.7854 19.8756 70.0317 19.8786C70.1925 19.8786 70.3216 19.8618 70.3216 19.7334V19.6336C70.3216 19.504 70.2952 19.504 70.0686 19.4314L69.5929 19.2797C69.4084 19.2227 69.2885 19.1151 69.2885 18.7677V18.537C69.2885 18.1403 69.6509 17.9951 70.1753 17.9951C70.4168 17.9921 70.6579 18.0169 70.8935 18.069C70.9146 18.2256 70.9146 18.3843 70.8935 18.5409C70.6624 18.4974 70.4277 18.4757 70.1925 18.476C70.0146 18.476 69.8868 18.4903 69.8868 18.6251V18.7055C69.8868 18.8105 69.921 18.8273 70.1411 18.9012L70.6194 19.0594C70.8078 19.1229 70.9212 19.2201 70.9212 19.5636V19.8255Z" fill="#FCFCFC"/>
<path d="M74.9943 18.454C74.9943 17.9498 75.3118 17.8318 76.0379 17.8318C76.0577 17.9802 76.0577 18.1306 76.0379 18.279C75.6505 18.279 75.5411 18.3698 75.5411 18.6368V20.1923C75.5411 20.4516 75.6505 20.5359 76.0379 20.5359C76.0577 20.6878 76.0577 20.8415 76.0379 20.9935C75.3118 20.9935 74.9943 20.8729 74.9943 20.3673V18.454Z" fill="#FCFCFC"/>
<path d="M79.3652 19.8255C79.3652 20.2144 79.0331 20.3674 78.4849 20.3674C78.2354 20.3672 77.9862 20.3503 77.7391 20.3168C77.718 20.1546 77.718 19.9903 77.7391 19.8281C77.983 19.8587 78.2285 19.8756 78.4744 19.8786C78.6351 19.8786 78.7656 19.8618 78.7656 19.7335V19.6336C78.7656 19.504 78.7379 19.504 78.5126 19.4314L78.0369 19.2798C77.8524 19.2227 77.7325 19.1151 77.7325 18.7677V18.537C77.7325 18.1403 78.0949 17.9951 78.618 17.9951C78.8599 17.992 79.1014 18.0168 79.3375 18.069C79.3572 18.2257 79.3572 18.3842 79.3375 18.5409C79.106 18.4974 78.8708 18.4757 78.6351 18.4761C78.4572 18.4761 78.3307 18.4903 78.3307 18.6251V18.7055C78.3307 18.8105 78.365 18.8274 78.5837 18.9012L79.0634 19.0555C79.2518 19.119 79.3652 19.2162 79.3652 19.5598V19.8255Z" fill="#FCFCFC"/>
<path d="M82.5541 18.0342C82.7515 18.0199 82.9496 18.0199 83.147 18.0342V19.744C83.147 20.2093 82.7636 20.3675 82.1877 20.3675C81.6119 20.3675 81.2271 20.2093 81.2271 19.744V18.0342C81.4263 18.0199 81.6262 18.0199 81.8254 18.0342V19.6338C81.8254 19.8425 81.9927 19.8684 82.1877 19.8684C82.3828 19.8684 82.5541 19.8425 82.5541 19.6338V18.0342Z" fill="#FCFCFC"/>
<path d="M86.8947 18.9636C86.8947 19.2423 86.7339 19.4005 86.4559 19.4821C86.6402 19.7498 86.8007 20.0325 86.9355 20.3273C86.7249 20.3403 86.5136 20.3403 86.303 20.3273C86.1761 20.0542 86.0271 19.7915 85.8576 19.5418H85.6903V20.3273C85.4906 20.3403 85.2903 20.3403 85.0907 20.3273V18.0342H85.9156C86.5217 18.0342 86.9012 18.1884 86.9012 18.6201L86.8947 18.9636ZM86.2951 18.7575C86.2951 18.5527 86.1172 18.5255 85.8998 18.5255H85.6876V19.0557H85.8998C86.1146 19.0557 86.2951 19.0284 86.2951 18.8262V18.7575Z" fill="#FCFCFC"/>
<path d="M89.1295 18.6368C89.1295 18.3698 89.0202 18.279 88.6327 18.279C88.613 18.1306 88.613 17.9802 88.6327 17.8318C89.3588 17.8318 89.6777 17.9498 89.6777 18.454V20.3738C89.6777 20.8794 89.3588 20.9999 88.6327 20.9999C88.613 20.848 88.613 20.6943 88.6327 20.5423C89.0202 20.5423 89.1295 20.4516 89.1295 20.1988V18.6368Z" fill="#FCFCFC"/>
<path d="M93.3528 18.9636C93.3528 19.2423 93.192 19.4005 92.9153 19.4821C93.0991 19.7501 93.2596 20.0328 93.395 20.3273C93.1839 20.3403 92.9722 20.3403 92.7611 20.3273C92.6342 20.0542 92.4853 19.7915 92.3157 19.5418H92.1484V20.3273C91.9488 20.3403 91.7485 20.3403 91.5488 20.3273V18.0342H92.3724C92.9786 18.0342 93.3581 18.1884 93.3581 18.6201L93.3528 18.9636ZM92.7546 18.7575C92.7546 18.5527 92.5767 18.5255 92.3592 18.5255H92.1484V19.0557H92.3605C92.5767 19.0557 92.7559 19.0284 92.7559 18.8262L92.7546 18.7575Z" fill="#FCFCFC"/>
<path d="M95.2714 20.3273V18.0342H96.7842C96.8013 18.1906 96.8013 18.3483 96.7842 18.5047H95.8697V18.9429H96.7499C96.767 19.0971 96.767 19.2527 96.7499 19.407H95.8697V19.8555H96.7842C96.8013 20.0123 96.8013 20.1705 96.7842 20.3273H95.2714Z" fill="#FCFCFC"/>
<path d="M99.9691 19.906H99.2509L99.1191 20.3273C98.9155 20.3402 98.7113 20.3402 98.5077 20.3273L99.322 18.0341C99.5146 18.0199 99.708 18.0199 99.9005 18.0341L100.715 20.3273C100.507 20.3402 100.299 20.3402 100.092 20.3273L99.9691 19.906ZM99.6093 18.7212L99.3906 19.4445H99.8294L99.6093 18.7212Z" fill="#FCFCFC"/>
<path d="M102.491 20.3273V18.0341C102.691 18.0199 102.891 18.0199 103.091 18.0341V19.849H103.987C104.004 20.0058 104.004 20.164 103.987 20.3208L102.491 20.3273Z" fill="#FCFCFC"/>
</g>
<defs>
<clipPath id="clip0_143_428">
<rect width="104" height="21" fill="white"/>
</clipPath>
</defs>
</svg>
