<svg width="26" height="26" viewBox="0 0 26 26" fill="none" xmlns="http://www.w3.org/2000/svg">
<path d="M13 0C5.82 0 0 5.82 0 13C0 18.364 3.25 22.967 7.887 24.953C7.857 24.223 7.841 23.099 7.989 22.528C8.218 21.644 9.823 14.817 9.823 14.817C9.823 14.817 8.988 12.983 9.578 11.51C10.167 10.037 11.068 9.185 12.525 9.529C13.982 9.873 13.704 11.903 13.606 12.378C13.508 12.853 12.836 14.932 12.525 16.078C12.214 17.224 13.409 19.467 15.832 18.256C18.255 17.044 18.943 13.082 18.664 10.512C18.386 7.941 14.98 5.715 11.149 6.91C7.318 8.105 6.868 11.756 6.868 13.025C6.868 14.351 7.613 15.309 7.777 15.481C7.941 15.653 7.998 15.882 7.998 15.882L7.63 17.363C7.63 17.363 7.335 17.944 6.549 17.42C5.763 16.896 3.897 15.194 4.289 12.148C4.682 9.103 5.796 6.614 9.921 4.977C14.047 3.34 18.173 4.748 20.465 7.498C22.757 10.249 22.397 15.029 20.105 18.108C17.813 21.186 14.538 20.957 13.425 20.564C12.312 20.171 11.657 19.189 11.657 19.189C11.657 19.189 10.675 23.118 10.511 23.642C10.407 23.974 9.87 24.884 9.49 25.507C10.608 25.82 11.782 26 13 26C20.18 26 26 20.18 26 13C26 5.82 20.18 0 13 0Z" fill="#BABABA"/>
</svg>
